<svg width="54" height="53" viewBox="0 0 54 53" fill="none" xmlns="http://www.w3.org/2000/svg">
<g filter="url(#filter0_d_148_913)">
<path d="M4 22.5C4 10.0736 14.0736 0 26.5 0H27.5C39.9264 0 50 10.0736 50 22.5C50 34.9264 39.9264 45 27.5 45H26.5C14.0736 45 4 34.9264 4 22.5Z" fill="#F9F9F9"/>
</g>
<path d="M20.2425 14.49V14.16H23.1025L27.1835 20.144H27.4035L31.4845 14.16H34.3225V14.49L29.0755 21.959L34.5425 29.67V30H31.6825L27.3815 23.774H27.1615L22.8605 30H20.0115V29.67L25.4895 21.959L20.2425 14.49Z" fill="black"/>
<defs>
<filter id="filter0_d_148_913" x="0" y="0" width="54" height="53" filterUnits="userSpaceOnUse" color-interpolation-filters="sRGB">
<feFlood flood-opacity="0" result="BackgroundImageFix"/>
<feColorMatrix in="SourceAlpha" type="matrix" values="0 0 0 0 0 0 0 0 0 0 0 0 0 0 0 0 0 0 127 0" result="hardAlpha"/>
<feOffset dy="4"/>
<feGaussianBlur stdDeviation="2"/>
<feComposite in2="hardAlpha" operator="out"/>
<feColorMatrix type="matrix" values="0 0 0 0 0 0 0 0 0 0 0 0 0 0 0 0 0 0 0.19 0"/>
<feBlend mode="normal" in2="BackgroundImageFix" result="effect1_dropShadow_148_913"/>
<feBlend mode="normal" in="SourceGraphic" in2="effect1_dropShadow_148_913" result="shape"/>
</filter>
</defs>
</svg>
